# xmcd
#
# Track frame offsets:
# 150
# 17330
# 34722
# 46472
# 57520
# 73597
# 90085
# 109585
# 125812
# 145370
# 161087
# 178367
# 195405
# 212540
# 228500
# 246365
# 262967
# 282855
# 294730
# 313150
#
# Disc length: 4380 seconds
#
#
# Revision: 7
# Processed by: cddbd v1.5.1PL2 Copyright (c) Steve Scherf et al.
# Submitted via: FreeRIP 2.945 
#
DISCID=29111a14
DTITLE=Various Artist - Anos 70's - O Som dos Grandes Amores - Anos 70's - O Som dos Grandes Amores
DYEAR=2002
DGENRE=Pop
TTITLE0=Michael Bolton - When A Man Loves A Woman
TTITLE1=Elton John - Skyline Pigeon
TTITLE2=Artist - The End
TTITLE3=April Stevens - Teach Me Tiger
TTITLE4=Bee Gees - Reaching Out
TTITLE5=Santo California - Tornero
TTITLE6=Various Artist - Jet'Aime Mo Non Plus
TTITLE7=Nazareth - I Don't Want To Go Without
TTITLE8=Valentino - Flying
TTITLE9=Dionysus - Don't Forget
TTITLE10=Nazareth - Love Hurts
TTITLE11=Isabel Patton - Patrick Amor Mio
TTITLE12=Timmy Thomas - Why We Can't Live Together
TTITLE13=Tinder Sticks - Sweet Memory
TTITLE14=Various Artist - so
TTITLE15=Bread - The Guitar Man
TTITLE16=Various Artist - Crim Son And Lover
TTITLE17=Credence Clear Water Revival - Have You Ever Seen The Rain
TTITLE18=Procol Harum - A Whiter Shade Of Pale
TTITLE19=Credence Clear Water Revival - Long As I Can See The Light
EXTD=
EXTT0=
EXTT1=
EXTT2=
EXTT3=
EXTT4=
EXTT5=
EXTT6=
EXTT7=
EXTT8=
EXTT9=
EXTT10=
EXTT11=
EXTT12=
EXTT13=
EXTT14=
EXTT15=
EXTT16=
EXTT17=
EXTT18=
EXTT19=
PLAYORDER=
